# xmcd
#
# Track frame offsets:
#	150
#	19695
#	33536
#	53365
#	69002
#	86506
#	95585
#	108773
#	121393
#	134387
#	146358
#	158354
#	172145
#	184221
#	199378
#	219981
#	230586
#	245072
#
# Disc length: 3540 seconds
#
# Revision: 1
# Processed by: cddbd v1.5.2PL0 Copyright (c) Steve Scherf et al.
# Submitted via: EasyCDDAExtractor 15.2.5.1
#
DISCID=f10dd212
DTITLE=Various Artist - Songs Of The South - Farther Along
DYEAR=2004
DGENRE=Country
TTITLE0=Jerry Garcia and David Grisman - Shady Grove
TTITLE1=Ricky Skaggs and Tony Rice - More Pretty Girls Than One
TTITLE2=Ralph Stanley - Farther Along (With Lucinda Williams)
TTITLE3=Emmylou Harris - Wayfaring Stranger
TTITLE4=Johnny Cash - Were You There (When They Crucified My Lord) (With The C
TTITLE4=arter Family)
TTITLE5=Doc Watson - Down The Valley To Pray
TTITLE6=Taj Mahal - Candy Man
TTITLE7=The Staple Singers - Will The Circle Be Unbroken
TTITLE8=Nanci Griffith - Wings Of A Dove
TTITLE9=Iris Dement - Mom And Dad's Waltz
TTITLE10=The Louvin Brothers - Kentucky
TTITLE11=The Everly Brothers - Down In The Willow Garden
TTITLE12=Ralph Stanley - I Never Will Marry (With Emmylou Harris And Judy Mars
TTITLE12=hall)
TTITLE13=John Hiatt - I'm Satisfied
TTITLE14=Gillian Welch - Beulah Land
TTITLE15=Dwight Yoakam - Miner's Prayer
TTITLE16=John Prine - Paradise
TTITLE17=Ry Cooder - Goodnight Irene
EXTD=
EXTT0=
EXTT1=
EXTT2=
EXTT3=
EXTT4=
EXTT5=
EXTT6=
EXTT7=
EXTT8=
EXTT9=
EXTT10=
EXTT11=
EXTT12=
EXTT13=
EXTT14=
EXTT15=
EXTT16=
EXTT17=
PLAYORDER=
